# File created by Blade
# Date/Time:  Wed Jan 21 17:16:23 2015
# Frame Rate: 120.000 fps
#------------------------------------------------------
:FULLY-SPECIFIED
:DEGREES
1677
root 21.202884 5.325328 -15.981163 -185.576019 -5.215690 -207.127775
Spine 14.248620 4.824051 -39.248786
Head -2.719999 -15.384289 17.218695
LeftShoulder 8.108409 -30.550150 -0.631089
LeftArm 8.545249 66.897098 -60.830629
LeftForeArm 24.163492 0.000000 43.064722
LeftHand 2.650884 0.000000 6.978028
LeftHandThumb1 -26.253704 0.000000 33.147579
RightShoulder 0.709071 -2.563898 9.962702
RightArm 51.348751 -41.926085 43.597400
RightForeArm -46.269495 0.000000 42.279106
RightHand -0.516234 0.000000 -8.276925
RightHandThumb1 -24.326973 -0.000000 -32.862282
LeftUpLeg -10.370946 27.305997 36.544941
LeftLeg 148.701573 -0.000000 -0.000000
LeftFoot 47.290874 2.366433 19.915452
LeftToeBase 20.865438 -0.000000 -0.000000
RightUpLeg -104.869283 -7.181497 58.445508
RightLeg 125.481419 -0.000000 -0.000000
RightFoot 29.349565 -21.908154 6.345285
RightToeBase 35.565575 -0.000000 -0.000000
1678
root 21.203401 5.328611 -15.985665 -185.628571 -5.207065 -207.105182
Spine 14.337925 4.764562 -39.285664
Head -2.494389 -15.726271 17.364739
LeftShoulder 7.969696 -30.542710 -0.558872
LeftArm 8.631900 66.490035 -60.442065
LeftForeArm 24.170436 -0.000000 43.478717
LeftHand 2.821641 -0.000000 6.202118
LeftHandThumb1 -26.253704 0.000000 33.147579
RightShoulder 0.646738 -2.623581 9.971732
RightArm 50.844051 -41.685800 44.010710
RightForeArm -46.141010 -0.000000 43.052159
RightHand -0.388570 0.000000 -7.692466
RightHandThumb1 -24.326973 -0.000000 -32.862282
LeftUpLeg -10.299706 27.278148 36.597321
LeftLeg 148.682903 -0.000000 -0.000000
LeftFoot 47.288584 2.367511 19.913534
LeftToeBase 20.887784 -0.000000 -0.000000
RightUpLeg -104.826658 -7.243402 58.491920
RightLeg 125.463367 -0.000000 -0.000000
RightFoot 29.337887 -22.021870 6.349463
RightToeBase 35.639993 -0.000000 -0.000000
1679
root 21.204438 5.331555 -15.990151 -185.712249 -5.204569 -207.077861
Spine 14.476683 4.721480 -39.309862
Head -2.321408 -16.084819 17.480395
LeftShoulder 7.856575 -30.516503 -0.500542
LeftArm 8.719888 66.022575 -60.024316
LeftForeArm 24.144040 -0.000000 43.867924
LeftHand 3.055805 -0.000000 5.598350
LeftHandThumb1 -26.253704 0.000000 33.147579
RightShoulder 0.618499 -2.626844 9.940573
RightArm 50.106611 -41.408985 44.680863
RightForeArm -46.339553 -0.000000 43.853684
RightHand -0.300215 0.000000 -7.382878
RightHandThumb1 -24.326973 -0.000000 -32.862282
LeftUpLeg -10.201677 27.220076 36.668552
LeftLeg 148.668451 -0.000000 -0.000000
LeftFoot 47.259239 2.370555 19.915679
LeftToeBase 20.938493 -0.000000 -0.000000
RightUpLeg -104.775784 -7.340423 58.507017
RightLeg 125.456592 -0.000000 -0.000000
RightFoot 29.348459 -22.000406 6.348606
RightToeBase 35.659007 -0.000000 -0.000000
1680
root 21.205929 5.333412 -15.992973 -185.788843 -5.198517 -207.038792
Spine 14.626087 4.659631 -39.311351
Head -2.207715 -16.457612 17.604637
LeftShoulder 7.727421 -30.509458 -0.442696
LeftArm 8.736870 65.498258 -59.618708
LeftForeArm 24.181157 -0.000000 44.301978
LeftHand 3.433579 -0.000000 5.047654
LeftHandThumb1 -26.253704 0.000000 33.147579
RightShoulder 0.609195 -2.649000 9.896663
RightArm 49.138330 -40.932884 45.706065
RightForeArm -46.636306 -0.000000 44.697344
RightHand 0.136950 0.000000 -6.826135
RightHandThumb1 -24.326973 -0.000000 -32.862282
LeftUpLeg -10.116430 27.168032 36.749663
LeftLeg 148.659331 -0.000000 -0.000000
LeftFoot 47.270473 2.339395 19.939311
LeftToeBase 20.933740 -0.000000 -0.000000
RightUpLeg -104.718348 -7.422979 58.547271
RightLeg 125.438733 -0.000000 -0.000000
RightFoot 29.331920 -22.041103 6.350166
RightToeBase 35.701624 -0.000000 -0.000000
1681
root 21.207034 5.335130 -15.994981 -185.866249 -5.191081 -207.010113
Spine 14.778111 4.609170 -39.328739
Head -2.057002 -16.874419 17.719443
LeftShoulder 7.617243 -30.465864 -0.382222
LeftArm 8.784087 64.966611 -59.143073
LeftForeArm 24.226638 -0.000000 44.753601
LeftHand 3.770733 -0.000000 4.671066
LeftHandThumb1 -26.253704 0.000000 33.147579
RightShoulder 0.574282 -2.742222 9.842782
RightArm 48.285488 -40.480466 46.529039
RightForeArm -46.835708 -0.000000 45.701525
RightHand 0.263132 -0.000000 -6.542236
RightHandThumb1 -24.326973 -0.000000 -32.862282
LeftUpLeg -10.032264 27.127873 36.818505
LeftLeg 148.648952 -0.000000 -0.000000
LeftFoot 47.277861 2.352199 19.944251
LeftToeBase 20.896230 -0.000000 -0.000000
RightUpLeg -104.660285 -7.494996 58.561232
RightLeg 125.425123 -0.000000 -0.000000
RightFoot 29.321943 -22.074557 6.380171
RightToeBase 35.752235 -0.000000 -0.000000
1682
root 21.208746 5.336098 -15.995131 -185.930057 -5.191638 -206.996368
Spine 14.926869 4.573276 -39.358355
Head -1.924146 -17.253951 17.829245
LeftShoulder 7.541387 -30.394803 -0.358104
LeftArm 8.908072 64.397952 -58.521623
LeftForeArm 24.371005 0.000000 45.255814
LeftHand 4.058001 -0.000000 4.345919
LeftHandThumb1 -26.253704 0.000000 33.147579
RightShoulder 0.533350 -2.794142 9.803751
RightArm 47.213869 -39.980567 47.522246
RightForeArm -47.155179 -0.000000 46.811910
RightHand 0.483355 -0.000000 -6.416845
RightHandThumb1 -24.326973 -0.000000 -32.862282
LeftUpLeg -9.973135 27.089257 36.862363
LeftLeg 148.646356 -0.000000 -0.000000
LeftFoot 47.279920 2.348942 19.957786
LeftToeBase 20.897143 -0.000000 -0.000000
RightUpLeg -104.610792 -7.557098 58.544045
RightLeg 125.409317 -0.000000 -0.000000
RightFoot 29.341684 -22.033937 6.387201
RightToeBase 35.741418 -0.000000 -0.000000
